<?xml version="1.0" encoding="utf-8"?>
<!-- Generator: Adobe Illustrator 21.0.0, SVG Export Plug-In . SVG Version: 6.00 Build 0)  -->
<svg version="1.1" id="Layer_1" xmlns="http://www.w3.org/2000/svg" xmlns:xlink="http://www.w3.org/1999/xlink" x="0px" y="0px"
	 viewBox="0 0 512 512" style="enable-background:new 0 0 512 512;" xml:space="preserve">
<style type="text/css">
	.st0{display:none;}
	.st1{display:inline;fill:#D8C387;}
	.st2{display:inline;fill:#EFDB9E;}
	.st3{display:inline;fill:#E5D095;}
	.st4{display:inline;fill:#E2A896;}
	.st5{display:inline;fill:#EDB59F;}
	.st6{display:inline;fill:#B79E5E;}
	.st7{display:inline;fill:#C1A863;}
	.st8{display:inline;fill:#965623;}
	.st9{display:inline;fill:#9E5E25;}
	.st10{display:inline;fill:#FF3333;}
	.st11{display:inline;fill:#DD2222;}
	.st12{display:inline;fill:#33A027;}
	.st13{display:inline;fill:#398C2A;}
	.st14{display:inline;fill:#3631FF;}
	.st15{display:inline;fill:#2020E0;}
	.st16{display:inline;fill:#F26D7D;}
	.st17{display:inline;fill:#DD5F74;}
	.st18{display:inline;}
	.st19{fill:#FF3333;}
	.st20{fill:#DD2222;}
	.st21{fill:#CC1717;}
	.st22{display:inline;fill:#CC1717;}
	.st23{display:inline;fill:#EFA0A0;}
	.st24{fill:#3631FF;}
	.st25{fill:#1B17CE;}
	.st26{fill:#FFFFFF;}
	.st27{fill:#C9C9C9;}
	.st28{fill:#B7B6B6;}
	.st29{fill:#A3A3A3;}
	.st30{display:inline;fill:#131399;}
	.st31{display:inline;fill:#D1D1D3;}
	.st32{display:inline;fill:#750C0C;}
	.st33{display:inline;fill:#FFFFFF;}
	.st34{display:inline;fill:#F44A4A;}
	.st35{display:inline;fill:#F9F9F9;}
	.st36{fill:#E02B2B;}
	.st37{display:inline;fill:#CCCCCC;}
	.st38{fill:#F44A4A;}
	.st39{fill:#846F3C;}
	.st40{display:none;fill:#E5D095;}
	.st41{display:none;fill:#512300;}
	.st42{display:none;fill:#EFD954;}
	.st43{display:inline;fill:#FF0000;}
	.st44{display:inline;fill:#512300;}
	.st45{display:inline;fill:#EFD954;}
	.st46{fill:#FF0000;}
	.st47{fill:#E50303;}
	.st48{display:inline;fill:#E50303;}
	.st49{display:inline;fill:#DBDBDB;}
	.st50{display:inline;fill:#662D91;}
	.st51{display:inline;fill:#7A49A5;}
	.st52{display:inline;fill:#E5D615;}
	.st53{display:inline;fill:#FFF200;}
</style>
<g id="face_and_neck_1" class="st0">
	<path id="neck_1_" class="st1" d="M274.5,446.8h-40c-16.6,0-30-13.4-30-30v-50h100v50C304.5,433.3,291.1,446.8,274.5,446.8z"/>
	<circle id="face_1_" class="st2" cx="254.5" cy="256" r="150"/>
	<path id="face_shadow" class="st3" d="M254.5,106c82.8,0,150,67.2,150,150s-67.2,150-150,150"/>
</g>
<g id="face_and_neck_4" class="st0">
	<path id="neck_4_" class="st4" d="M274.5,446.8h-40c-16.6,0-30-13.4-30-30v-50h100v50C304.5,433.3,291.1,446.8,274.5,446.8z"/>
	<circle id="face_4_" class="st5" cx="254.5" cy="256" r="150"/>
	<path id="face_shadow_3_" class="st4" d="M254.5,106c82.8,0,150,67.2,150,150s-67.2,150-150,150"/>
</g>
<g id="face_and_neck_2" class="st0">
	<path id="neck_2_" class="st6" d="M274.5,446.8h-40c-16.6,0-30-13.4-30-30v-50h100v50C304.5,433.3,291.1,446.8,274.5,446.8z"/>
	<circle id="face_2_" class="st7" cx="254.5" cy="256" r="150"/>
	<path id="face_shadow_1_" class="st6" d="M254.5,106c82.8,0,150,67.2,150,150s-67.2,150-150,150"/>
</g>
<g id="face_and_neck_3" class="st0">
	<path id="neck_3_" class="st8" d="M274.5,446.8h-40c-16.6,0-30-13.4-30-30v-50h100v50C304.5,433.3,291.1,446.8,274.5,446.8z"/>
	<circle id="face_3_" class="st9" cx="254.5" cy="256" r="150"/>
	<path id="face_shadow_2_" class="st8" d="M254.5,106c82.8,0,150,67.2,150,150s-67.2,150-150,150"/>
</g>
<g id="red_T_shirt" class="st0">
	<path class="st10" d="M369.1,420.4h-64.8c-1.8,14.8-14.4,26.4-29.8,26.4h-40c-15.3,0-28-11.5-29.8-26.4h-55.7
		c-49.7,0-90,40.3-90,90v1.6h400v-1.6C459.1,460.7,418.8,420.4,369.1,420.4z"/>
	<path class="st11" d="M364.5,420.4h-60.2c-1.8,14.8-14.4,26.3-29.8,26.3h-20V512h200h4.6C461.3,460.3,415.9,418.9,364.5,420.4z"/>
</g>
<g id="green_T_shirt" class="st0">
	<path class="st12" d="M369.1,420.4h-64.8c-1.8,14.8-14.4,26.4-29.8,26.4h-40c-15.3,0-28-11.5-29.8-26.4h-55.7
		c-49.7,0-90,40.3-90,90v1.6h400v-1.6C459.1,460.7,418.8,420.4,369.1,420.4z"/>
	<path class="st13" d="M364.5,420.4h-60.2c-1.8,14.8-14.4,26.3-29.8,26.3h-20V512h200h4.6C461.3,460.3,415.9,418.9,364.5,420.4z"/>
</g>
<g id="blue_T_shirt_2_" class="st0">
	<path class="st14" d="M369.1,420.4h-64.8c-1.8,14.8-14.4,26.4-29.8,26.4h-40c-15.3,0-28-11.5-29.8-26.4h-55.7
		c-49.7,0-90,40.3-90,90v1.6h400v-1.6C459.1,460.7,418.8,420.4,369.1,420.4z"/>
	<path class="st15" d="M364.5,420.4h-60.2c-1.8,14.8-14.4,26.3-29.8,26.3h-20V512h200h4.6C461.3,460.3,415.9,418.9,364.5,420.4z"/>
</g>
<g id="pink_T_shirt" class="st0">
	<path class="st16" d="M369.1,420.4h-64.8c-1.8,14.8-14.4,26.4-29.8,26.4h-40c-15.3,0-28-11.5-29.8-26.4h-55.7
		c-49.7,0-90,40.3-90,90v1.6h400v-1.6C459.1,460.7,418.8,420.4,369.1,420.4z"/>
	<path class="st17" d="M364.5,420.4h-60.2c-1.8,14.8-14.4,26.3-29.8,26.3h-20V512h200h4.6C461.3,460.3,415.9,418.9,364.5,420.4z"/>
</g>
<g id="red_shirt_1_" class="st0">
	<g id="ret_T_shirt_2_" class="st18">
		<path class="st19" d="M369.1,420.4h-64.8c-1.8,14.8-14.4,26.4-29.8,26.4h-40c-15.3,0-28-11.5-29.8-26.4h-55.7
			c-49.7,0-90,40.3-90,90v1.6h400v-1.6C459.1,460.7,418.8,420.4,369.1,420.4z"/>
		<path class="st20" d="M364.5,420.4h-60.2c-1.8,14.8-14.4,26.3-29.8,26.3h-20V512h200h4.6C461.3,460.3,415.9,418.9,364.5,420.4z"/>
	</g>
	<g id="collar_1_" class="st18">
		<polygon class="st20" points="204.5,406.8 185,432.3 204.5,482 240,435 		"/>
		<polygon class="st19" points="240,435 254.5,446.8 231.2,446.6 		"/>
		<polygon class="st21" points="304.5,406.8 324,432.3 304.5,482 269,435 		"/>
		<polygon class="st20" points="269,435 254.5,446.8 277.8,446.6 		"/>
	</g>
	<rect x="254.5" y="446.8" class="st22" width="14.5" height="65.3"/>
	<circle id="button_3_" class="st23" cx="262.1" cy="466.2" r="6.1"/>
	<circle id="button_2_" class="st23" cx="261.8" cy="501" r="6.1"/>
</g>
<g id="blue_shirt" class="st0">
	<g id="blue_T_shirt_1_" class="st18">
		<path class="st24" d="M369.1,420.4h-64.8c-1.8,14.8-14.4,26.4-29.8,26.4h-40c-15.3,0-28-11.5-29.8-26.4h-55.7
			c-49.7,0-90,40.3-90,90v1.6h400v-1.6C459.1,460.7,418.8,420.4,369.1,420.4z"/>
		<path class="st25" d="M364.5,420.4h-60.2c-1.8,14.8-14.4,26.3-29.8,26.3h-20V512h200h4.6C461.3,460.3,415.9,418.9,364.5,420.4z"/>
	</g>
	<g id="collar_2_" class="st18">
		<polygon class="st26" points="204.5,406.8 185,432.3 204.5,482 240,435 		"/>
		<polygon class="st27" points="240,435 254.5,446.8 231.2,446.6 		"/>
		<polygon class="st28" points="304.5,406.8 324,432.3 304.5,482 269,435 		"/>
		<polygon class="st29" points="269,435 254.5,446.8 277.8,446.6 		"/>
	</g>
	<rect x="254.5" y="446.8" class="st30" width="14.5" height="65.3"/>
	<circle id="button_4_" class="st31" cx="262.1" cy="466.2" r="6.1"/>
	<circle id="button_1_" class="st31" cx="261.8" cy="501" r="6.1"/>
</g>
<g id="eye_1" class="st0">
	<circle id="eye_1_" class="st18" cx="184.5" cy="238" r="20"/>
	<circle id="eye" class="st18" cx="324.5" cy="238" r="20"/>
</g>
<g id="eye_2" class="st0">
	<path id="eye_3_" class="st18" d="M204.5,238c0,11-9,20-20,20s-20-9-20-20C164.5,237.1,204.5,237.1,204.5,238z"/>
	<path id="eye_2_" class="st18" d="M344.5,238c0,11-9,20-20,20s-20-9-20-20C304.5,237.1,344.5,237.1,344.5,238z"/>
</g>
<g id="eye_3" class="st0">
	<path id="eye_4_" class="st18" d="M164.5,257.3c0-11,9-20,20-20s20,9,20,20c0,0.5-10-2.7-20-2.7
		C174.5,254.7,164.5,257.8,164.5,257.3z"/>
	<path id="eye_5_" class="st18" d="M344.2,257.3c0-11-9-20-20-20c-11,0-20,9-20,20c0,0.5,10-2.7,20-2.7
		C334.2,254.7,344.2,257.8,344.2,257.3z"/>
</g>
<g id="eye_4" class="st0">
	<path id="eye_7_" class="st18" d="M344.2,237.4c0,11-9,20-20,20c-11,0-20-9-20-20c0-0.5,9.3,16,19.3,16
		C333.4,253.3,344.2,236.9,344.2,237.4z"/>
	<path id="eye_6_" class="st18" d="M164.5,237.4c0,11,9,20,20,20s20-9,20-20c0-0.5-10,16-20,16C174.5,253.3,164.5,236.9,164.5,237.4
		z"/>
</g>
<g id="mouth_1" class="st0">
	<path id="mouth" class="st32" d="M324.5,310.5c0,38.7-31.3,70-70,70s-70-31.3-70-70"/>
	<path id="teeth" class="st33" d="M303.6,321.5h-98.1c-6,0-10.9-4.9-10.9-10.9l0,0h120l0,0C314.5,316.6,309.6,321.5,303.6,321.5z"/>
	<path id="tongue" class="st34" d="M202.5,357.4c34.7-15.8,69.3-15.8,104,0c-12.1,14.7-30,23.5-54,23.1
		C229.5,379.5,213.8,371.3,202.5,357.4z"/>
</g>
<g id="mouth_3" class="st0">
	<path id="tongue_2_" class="st34" d="M206.1,317c16.2-7.9,32.2-2.7,48.4-2.7c16.2,0,32.7-5.2,48.9,2.7
		c-11.3,14.7-26.4,27.6-48.9,27.3C232.9,343.3,216.7,330.9,206.1,317z"/>
	<path id="tongue_3_" class="st35" d="M210.5,317.8c12.8,5.6,74,5.2,88.2,0c-9.4,9.5-25.4,15.4-44.1,15.2
		C236.6,332.4,219.3,326.8,210.5,317.8z"/>
	<path id="tongue_4_" class="st34" d="M202.8,317c27.1-5.4,39.5-14.4,51.7-2.7"/>
	<path id="tongue_6_" class="st34" d="M306.2,317c-27.1-5.4-39.5-14.4-51.7-2.7"/>
</g>
<g id="mouth_3_1_" class="st0">
	<path id="tongue_9_" class="st34" d="M215.1,329.5c13.2-6.3,26.2-2.2,39.5-2.2c13.2,0,26.6-4.1,39.8,2.2
		c-9.2,11.8-21.6,16.2-39.9,16C236.9,344.6,223.7,340.6,215.1,329.5z"/>
	<path id="tongue_7_" class="st34" d="M212.3,329.5c22.1-4.3,32.2-11.5,42.2-2.2"/>
	<path id="tongue_5_" class="st34" d="M296.7,329.5c-22.1-4.3-32.2-11.5-42.2-2.2"/>
	<g class="st18">
		<path class="st36" d="M220.4,331c5.7,1.1,11.4,2.1,17.1,2.7c5.7,0.6,11.4,1,17.2,0.9c5.7,0,11.5-0.3,17.2-1
			c5.7-0.7,11.4-1.6,17.1-2.7c-5.5,1.9-11.1,3.3-16.9,4.2c-5.7,0.9-11.6,1.4-17.4,1.4c-5.8,0-11.6-0.5-17.4-1.4
			C231.5,334.4,225.9,332.9,220.4,331z"/>
	</g>
</g>
<g id="mouth_2" class="st0">
	<path id="mouth_1_" class="st32" d="M324.5,310.6c0,38.7-33.3,35-72,35s-68,3.7-68-35"/>
	<path class="st33" d="M302.5,328.9h-97.2c-5.3,0-9.8,3.8-10.7,8.9c11.8,9.4,32.9,7.9,57.9,7.9c25,0,47.8,1.5,60.8-7.9
		C312.3,332.7,307.9,328.9,302.5,328.9z"/>
	<path class="st37" d="M305.4,329.2c-1.6-0.6-4.3-1-7.5-1h-88.1c-3.3,0-6.2,0.4-7.8,1.1c5.8,1.8,16.1,2.2,29.3,2.3h42.3
		C287.5,331.5,299.1,331.1,305.4,329.2z"/>
	<path id="teeth_1_" class="st33" d="M308.8,328.1H200.2c-6,0-10.9-4.9-10.9-10.9v-6.6h130.5v6.6
		C319.8,323.2,314.8,328.1,308.8,328.1z"/>
	<path id="tongue_1_" class="st38" d="M202.5,357.5c34.7-15.8,69.3-15.8,104,0c-12.1,14.7-30,23.5-54,23.1
		C229.5,379.6,213.8,371.4,202.5,357.5z"/>
</g>
<g id="mouth_4_1_" class="st0">
	<g class="st18">
		<path class="st39" d="M169.9,304.4c-0.1,1.6-0.7,3.1-1.7,4.4c-1,1.3-2.3,2.3-3.7,3.1c-2.8,1.6-5.9,2.3-9.1,2.5
			c3-1,5.9-1.9,8.6-3.4c1.3-0.7,2.6-1.6,3.6-2.7C168.6,307.2,169.4,305.9,169.9,304.4z"/>
	</g>
	<g class="st18">
		<path class="st39" d="M339.1,304.4c0.5,1.5,1.3,2.8,2.3,3.9c1,1.1,2.3,2,3.6,2.7c2.6,1.5,5.6,2.4,8.6,3.4c-3.1-0.2-6.3-1-9.1-2.5
			c-1.4-0.8-2.7-1.8-3.7-3.1C339.8,307.5,339.2,306,339.1,304.4z"/>
	</g>
	<g id="mouth_4" class="st18">
		<path class="st39" d="M164.5,311.4c13.7,9,27.9,16.9,43,22.5c7.6,2.8,15.3,5.1,23.1,6.6c7.9,1.5,15.8,2.4,23.8,2.3
			c8,0,16-0.8,23.8-2.3c7.9-1.5,15.6-3.8,23.1-6.6c15.1-5.6,29.4-13.6,43-22.5c-12.4,10.6-26.3,19.7-41.6,26.2
			c-7.6,3.3-15.5,5.8-23.6,7.6c-8.1,1.7-16.4,2.6-24.8,2.7c-8.3-0.1-16.7-0.9-24.8-2.7c-8.1-1.8-16.1-4.3-23.6-7.6
			C190.9,331.1,176.9,322,164.5,311.4z"/>
	</g>
</g>
<path class="st40" d="M105.6,238"/>
<path id="boy_hair_1_black" class="st0" d="M105.6,238l11.1,0.1c18.9-95.6,180.9-17.5,232.7-58c33.4-26.1,44.7,56.5,44.6,60.8
	l9.8,0.1c0,0,4.6-110-55.4-164.7c-18.5,28.8-67.2,19.5-91.8,17.7C75.4,65.4,94.3,242.1,105.6,238z"/>
<path id="boy_hair_1_brown" class="st41" d="M105.6,238l11.1,0.1c18.9-95.6,180.9-17.5,232.7-58c33.4-26.1,44.7,56.5,44.6,60.8
	l9.8,0.1c0,0,4.6-110-55.4-164.7c-18.5,28.8-67.2,19.5-91.8,17.7C75.4,65.4,94.3,242.1,105.6,238z"/>
<path id="boy_hair_1_blond" class="st42" d="M105.6,238l11.1,0.1c18.9-95.6,180.9-17.5,232.7-58c33.4-26.1,44.7,56.5,44.6,60.8
	l9.8,0.1c0,0,4.6-110-55.4-164.7c-18.5,28.8-67.2,19.5-91.8,17.7C75.4,65.4,94.3,242.1,105.6,238z"/>
<g id="girl_hair_1_black" class="st0">
	<path class="st18" d="M106.9,283c0.3,44.1-2.9,84.4-11.9,118.5c-1.7,6.5,3.5,12.7,10.2,12.1c33-3,66.1-5,99.3-6.1v-10.1
		C154.5,379.8,116.6,336.3,106.9,283z"/>
	<path class="st18" d="M416.3,400.9c-11.6-34.9-15.2-74.9-14.2-117.8c-9.7,53.2-47.6,96.7-97.6,114.3v10.1c33.8,1,67.7,3,101.7,6
		C413.2,414.2,418.4,407.5,416.3,400.9z"/>
	<path class="st18" d="M130.3,218c95.3,23.7,181.2-29,214.2-53.5c-5,27.1,20,51,58.8,72.9c0.4,0.2,0.8,0.4,1.2,0.7
		c0,0-11.6-140.5-150-132c-36.2,2.2-63.6,12.3-84.4,26c-18,11.8-31,26.3-40.4,40.8c-15.6,24-21.3,47.9-23.2,58.9
		c-0.7,4-0.9,6.3-0.9,6.3l0,0C105.6,238,121.7,215.9,130.3,218z"/>
	<polygon id="hair_slide" class="st43" points="376.6,163.8 360.9,191.1 342.1,167.5 312.4,163 328.1,135.8 346.9,159.3 	"/>
</g>
<g id="girl_hair_1_brown" class="st0">
	<path class="st44" d="M106.9,283c0.3,44.1-2.9,84.4-11.9,118.5c-1.7,6.5,3.5,12.7,10.2,12.1c33-3,66.1-5,99.3-6.1v-10.1
		C154.5,379.8,116.6,336.3,106.9,283z"/>
	<path class="st44" d="M416.3,400.9c-11.6-34.9-15.2-74.9-14.2-117.8c-9.7,53.2-47.6,96.7-97.6,114.3v10.1c33.8,1,67.7,3,101.7,6
		C413.2,414.2,418.4,407.5,416.3,400.9z"/>
	<path class="st44" d="M130.3,218c95.3,23.7,181.2-29,214.2-53.5c-5,27.1,20,51,58.8,72.9c0.4,0.2,0.8,0.4,1.2,0.7
		c0,0-11.6-140.5-150-132c-36.2,2.2-63.6,12.3-84.4,26c-18,11.8-31,26.3-40.4,40.8c-15.6,24-21.3,47.9-23.2,58.9
		c-0.7,4-0.9,6.3-0.9,6.3l0,0C105.6,238,121.7,215.9,130.3,218z"/>
	<polygon id="hair_slide_1_" class="st43" points="376.6,163.8 360.9,191.1 342.1,167.5 312.4,163 328.1,135.8 346.9,159.3 	"/>
</g>
<g id="girl_hair_1_blonde" class="st0">
	<path class="st45" d="M106.9,283c0.3,44.1-2.9,84.4-11.9,118.5c-1.7,6.5,3.5,12.7,10.2,12.1c33-3,66.1-5,99.3-6.1v-10.1
		C154.5,379.8,116.6,336.3,106.9,283z"/>
	<path class="st45" d="M416.3,400.9c-11.6-34.9-15.2-74.9-14.2-117.8c-9.7,53.2-47.6,96.7-97.6,114.3v10.1c33.8,1,67.7,3,101.7,6
		C413.2,414.2,418.4,407.5,416.3,400.9z"/>
	<path class="st45" d="M130.3,218c95.3,23.7,181.2-29,214.2-53.5c-5,27.1,20,51,58.8,72.9c0.4,0.2,0.8,0.4,1.2,0.7
		c0,0-11.6-140.5-150-132c-36.2,2.2-63.6,12.3-84.4,26c-18,11.8-31,26.3-40.4,40.8c-15.6,24-21.3,47.9-23.2,58.9
		c-0.7,4-0.9,6.3-0.9,6.3l0,0C105.6,238,121.7,215.9,130.3,218z"/>
	<polygon id="hair_slide_2_" class="st43" points="376.6,163.8 360.9,191.1 342.1,167.5 312.4,163 328.1,135.8 346.9,159.3 	"/>
</g>
<g id="girl_hair_2_black">
	<path d="M287.2,69.5h-78.7c-6.6,0-12-6.9-12-15.3V42.7c0-8.4,5.4-15.3,12-15.3c24.3-17,50.6-16.2,78.7,0c6.6,0,12,6.9,12,15.3v11.5
		C299.2,62.6,293.8,69.5,287.2,69.5z"/>
	<path class="st46" d="M291.7,81.7c-29.2-4.2-58.1-2.6-86.7,4.8c-4.6,0.3-8.5-3.3-8.8-7.9v0c-0.3-4.6,3.3-8.5,7.9-8.8
		C226,60.7,242,51.1,290.8,65c4.6-0.3,8.5,3.3,8.8,7.9v0C299.8,77.5,296.3,81.4,291.7,81.7z"/>
	<path class="st47" d="M200.4,74.6c28.1-10.1,52.7-7.3,94.5-6.1c1.2,0,2.2,1,2.4,2.2c0,0.4,0.1,0.8,0.3,1.3c0.5,1.8-1.2,3.4-3,2.9
		c-32.9-8.2-62.4-2-92.3,5.2c-1.4,0.3-2.9-0.5-3.1-1.9c0-0.1,0-0.1,0-0.2C198.5,76.6,199,75.1,200.4,74.6z"/>
	<path d="M136.4,388.1c-9-80.6,4.3-197.1,46.1-216.8c1.8-0.8,3.8,0.7,3.3,2.6c-3.3,14.9-16.1,22.2-13.2,32.5
		c1.5,5.1,49.1-25.2,81.3-46.4c0.4-0.1,0.8-0.3,1.2-0.4c58.4-1.9,121.8,24.2,136.8,75.2c1.5,5.2,5.5,3.4,9.2,3.1
		c1.3-0.1,2.2-1.2,2.2-2.4C402.4,214.8,391.3,77,256,77C125.7,77,100.2,186.9,99.1,191.9c0,0.1-0.1,0.2-0.1,0.3
		c-19.2,47,6.1,129.7,32.8,197C132.8,391.8,136.7,390.8,136.4,388.1z"/>
</g>
<g id="girl_hair_2_brown" class="st0">
	<path class="st44" d="M287.2,69.5h-78.7c-6.6,0-12-6.9-12-15.3V42.7c0-8.4,5.4-15.3,12-15.3c24.3-17,50.6-16.2,78.7,0
		c6.6,0,12,6.9,12,15.3v11.5C299.2,62.6,293.8,69.5,287.2,69.5z"/>
	<path class="st43" d="M291.7,81.7c-29.2-4.2-58.1-2.6-86.7,4.8c-4.6,0.3-8.5-3.3-8.8-7.9v0c-0.3-4.6,3.3-8.5,7.9-8.8
		C226,60.7,242,51.1,290.8,65c4.6-0.3,8.5,3.3,8.8,7.9v0C299.8,77.5,296.3,81.4,291.7,81.7z"/>
	<path class="st48" d="M200.4,74.6c28.1-10.1,52.7-7.3,94.5-6.1c1.2,0,2.2,1,2.4,2.2c0,0.4,0.1,0.8,0.3,1.3c0.5,1.8-1.2,3.4-3,2.9
		c-32.9-8.2-62.4-2-92.3,5.2c-1.4,0.3-2.9-0.5-3.1-1.9c0-0.1,0-0.1,0-0.2C198.5,76.6,199,75.1,200.4,74.6z"/>
	<path class="st44" d="M136.4,388.1c-9-80.6,4.3-197.1,46.1-216.8c1.8-0.8,3.8,0.7,3.3,2.6c-3.3,14.9-16.1,22.2-13.2,32.5
		c1.5,5.1,49.1-25.2,81.3-46.4c0.4-0.1,0.8-0.3,1.2-0.4c58.4-1.9,121.8,24.2,136.8,75.2c1.5,5.2,5.5,3.4,9.2,3.1
		c1.3-0.1,2.2-1.2,2.2-2.4C402.4,214.8,391.3,77,256,77C125.7,77,100.2,186.9,99.1,191.9c0,0.1-0.1,0.2-0.1,0.3
		c-19.2,47,6.1,129.7,32.8,197C132.8,391.8,136.7,390.8,136.4,388.1z"/>
</g>
<g id="girl_hair_2_blonde" class="st0">
	<path class="st45" d="M287.2,69.5h-78.7c-6.6,0-12-6.9-12-15.3V42.7c0-8.4,5.4-15.3,12-15.3c24.3-17,50.6-16.2,78.7,0
		c6.6,0,12,6.9,12,15.3v11.5C299.2,62.6,293.8,69.5,287.2,69.5z"/>
	<path class="st43" d="M291.7,81.7c-29.2-4.2-58.1-2.6-86.7,4.8c-4.6,0.3-8.5-3.3-8.8-7.9v0c-0.3-4.6,3.3-8.5,7.9-8.8
		C226,60.7,242,51.1,290.8,65c4.6-0.3,8.5,3.3,8.8,7.9v0C299.8,77.5,296.3,81.4,291.7,81.7z"/>
	<path class="st48" d="M200.4,74.6c28.1-10.1,52.7-7.3,94.5-6.1c1.2,0,2.2,1,2.4,2.2c0,0.4,0.1,0.8,0.3,1.3c0.5,1.8-1.2,3.4-3,2.9
		c-32.9-8.2-62.4-2-92.3,5.2c-1.4,0.3-2.9-0.5-3.1-1.9c0-0.1,0-0.1,0-0.2C198.5,76.6,199,75.1,200.4,74.6z"/>
	<path class="st45" d="M136.4,388.1c-9-80.6,4.3-197.1,46.1-216.8c1.8-0.8,3.8,0.7,3.3,2.6c-3.3,14.9-16.1,22.2-13.2,32.5
		c1.5,5.1,49.1-25.2,81.3-46.4c0.4-0.1,0.8-0.3,1.2-0.4c58.4-1.9,121.8,24.2,136.8,75.2c1.5,5.2,5.5,3.4,9.2,3.1
		c1.3-0.1,2.2-1.2,2.2-2.4C402.4,214.8,391.3,77,256,77C125.7,77,100.2,186.9,99.1,191.9c0,0.1-0.1,0.2-0.1,0.3
		c-19.2,47,6.1,129.7,32.8,197C132.8,391.8,136.7,390.8,136.4,388.1z"/>
</g>
<g id="girl_hair_3_black" class="st0">
	<path class="st18" d="M164.6,135.9C57.4,102,74.7,226.6,78.4,296.2c-2.9,10.9-17.3,18.2-30.7,0c-10.2,51.7,39.6,65.3,73.7,29
		c-10.8-20.7-16.9-44.2-16.9-69.1C104.5,206.9,128.1,163.3,164.6,135.9z"/>
	<path class="st18" d="M474,296.2c-13.5,18.2-27.8,10.9-30.7,0c3.7-69.6,21.1-194.3-86.4-160.2l1.5,11.7
		c28.5,27.3,46.2,65.7,46.2,108.3c0,21-4.3,41.1-12.2,59.3C425.8,363.4,485.1,352.1,474,296.2z"/>
	<path id="girl_black_hair_2_" class="st18" d="M344.5,164.5c-33,24.6-118.8,77.2-214.2,53.5c-8.7-2.1-24.8,20-24.8,20
		s10.6-123.5,148.9-132s150,132,150,132C365,216,339.5,191.9,344.5,164.5z"/>
	<polygon id="hair_slide_3_1_" class="st43" points="404.7,163.4 380.6,183.7 371,155.2 344.6,140.8 368.7,120.5 378.3,149.1 	"/>
	<polygon id="hair_slide_3" class="st43" points="149,120.5 173.2,140.8 146.7,155.2 137.2,183.7 113,163.4 139.5,149.1 	"/>
</g>
<g id="girl_hair_3_brown" class="st0">
	<path class="st44" d="M164.6,135.9C57.4,102,74.7,226.6,78.4,296.2c-2.9,10.9-17.3,18.2-30.7,0c-10.2,51.7,39.6,65.3,73.7,29
		c-10.8-20.7-16.9-44.2-16.9-69.1C104.5,206.9,128.1,163.3,164.6,135.9z"/>
	<path class="st44" d="M474,296.2c-13.5,18.2-27.8,10.9-30.7,0c3.7-69.6,21.1-194.3-86.4-160.2l1.5,11.7
		c28.5,27.3,46.2,65.7,46.2,108.3c0,21-4.3,41.1-12.2,59.3C425.8,363.4,485.1,352.1,474,296.2z"/>
	<path id="girl_black_hair_1_" class="st44" d="M344.5,164.5c-33,24.6-118.8,77.2-214.2,53.5c-8.7-2.1-24.8,20-24.8,20
		s10.6-123.5,148.9-132s150,132,150,132C365,216,339.5,191.9,344.5,164.5z"/>
	<polygon id="hair_slide_3_3_" class="st43" points="404.7,163.4 380.6,183.7 371,155.2 344.6,140.8 368.7,120.5 378.3,149.1 	"/>
	<polygon id="hair_slide_3_2_" class="st43" points="149,120.5 173.2,140.8 146.7,155.2 137.2,183.7 113,163.4 139.5,149.1 	"/>
</g>
<g id="girl_hair_3_blonde" class="st0">
	<path class="st45" d="M164.6,135.9C57.4,102,74.7,226.6,78.4,296.2c-2.9,10.9-17.3,18.2-30.7,0c-10.2,51.7,39.6,65.3,73.7,29
		c-10.8-20.7-16.9-44.2-16.9-69.1C104.5,206.9,128.1,163.3,164.6,135.9z"/>
	<path class="st45" d="M474,296.2c-13.5,18.2-27.8,10.9-30.7,0c3.7-69.6,21.1-194.3-86.4-160.2l1.5,11.7
		c28.5,27.3,46.2,65.7,46.2,108.3c0,21-4.3,41.1-12.2,59.3C425.8,363.4,485.1,352.1,474,296.2z"/>
	<path id="girl_black_hair_3_" class="st45" d="M344.5,164.5c-33,24.6-118.8,77.2-214.2,53.5c-8.7-2.1-24.8,20-24.8,20
		s10.6-123.5,148.9-132s150,132,150,132C365,216,339.5,191.9,344.5,164.5z"/>
	<polygon id="hair_slide_3_5_" class="st43" points="404.7,163.4 380.6,183.7 371,155.2 344.6,140.8 368.7,120.5 378.3,149.1 	"/>
	<polygon id="hair_slide_3_4_" class="st43" points="149,120.5 173.2,140.8 146.7,155.2 137.2,183.7 113,163.4 139.5,149.1 	"/>
</g>
<path id="boy_hair_2_black" class="st0" d="M104.5,256c-7.2-50.6-8.3-115.6,7.8-150l9.6,16.7c15-28,35.7-49.8,62.6-64.9
	c3.3,17.8,9,30.1,20,29.8c26.8-17,47.7-36.2,54.6-60.5c6,24.3,19.2,44.8,45.4,58.8c9.9-4.5,16.3-13.6,20-26.3
	c23.4,20.7,41.6,42.2,52.7,64.9c12-0.7,18.5-6.5,18.4-18.5c15.8,43.9,18.5,98,8.7,142.1c-4.8-31.8-16.5-69.5-47.5-85.8
	c-68.9,9.2-139.4,9.1-211.2,0.8C122.9,178.8,111.1,224.4,104.5,256z"/>
<path id="boy_hair_2_brown" class="st41" d="M104.5,256c-7.2-50.6-8.3-115.6,7.8-150l9.6,16.7c15-28,35.7-49.8,62.6-64.9
	c3.3,17.8,9,30.1,20,29.8c26.8-17,47.7-36.2,54.6-60.5c6,24.3,19.2,44.8,45.4,58.8c9.9-4.5,16.3-13.6,20-26.3
	c23.4,20.7,41.6,42.2,52.7,64.9c12-0.7,18.5-6.5,18.4-18.5c15.8,43.9,18.5,98,8.7,142.1c-4.8-31.8-16.5-69.5-47.5-85.8
	c-68.9,9.2-139.4,9.1-211.2,0.8C122.9,178.8,111.1,224.4,104.5,256z"/>
<path id="boy_hair_2_blond" class="st42" d="M104.5,256c-7.2-50.6-8.3-115.6,7.8-150l9.6,16.7c15-28,35.7-49.8,62.6-64.9
	c3.3,17.8,9,30.1,20,29.8c26.8-17,47.7-36.2,54.6-60.5c6,24.3,19.2,44.8,45.4,58.8c9.9-4.5,16.3-13.6,20-26.3
	c23.4,20.7,41.6,42.2,52.7,64.9c12-0.7,18.5-6.5,18.4-18.5c15.8,43.9,18.5,98,8.7,142.1c-4.8-31.8-16.5-69.5-47.5-85.8
	c-68.9,9.2-139.4,9.1-211.2,0.8C122.9,178.8,111.1,224.4,104.5,256z"/>
<g id="boy_hair_3_black" class="st0">
	<circle class="st18" cx="164.5" cy="146" r="40"/>
	<ellipse class="st18" cx="214.2" cy="126.7" rx="44.9" ry="49.6"/>
	<ellipse class="st18" cx="184.5" cy="126.7" rx="37.3" ry="39.9"/>
	<ellipse class="st18" cx="264" cy="119.7" rx="52.5" ry="42.5"/>
	<ellipse class="st18" cx="304.5" cy="126.7" rx="53.3" ry="38.6"/>
	<circle class="st18" cx="378.1" cy="180.4" r="33.6"/>
	<ellipse class="st18" cx="350.1" cy="153.6" rx="33.6" ry="26.9"/>
	<circle class="st18" cx="357.8" cy="146.1" r="34.4"/>
	<circle class="st18" cx="137.3" cy="183.3" r="37.3"/>
	<path class="st18" d="M101,258c-8.6-22.9-10.9-44.9-4.5-65.5c1.7-5.5,6.7-9.3,12.5-9.3h30.9c11.1,0,17.1,13,9.9,21.4
		c-12.2,14.4-19.1,31.2-21.1,50.3c-0.7,6.6-6.3,11.5-12.9,11.5h-2.4C107.8,266.6,103,263.2,101,258z"/>
	<path class="st18" d="M407.7,258c8.6-22.9,10.9-44.9,4.5-65.5c-1.7-5.5-6.7-9.3-12.5-9.3h-30.9c-11.1,0-17.1,13-9.9,21.4
		c12.2,14.4,19.1,31.2,21.1,50.3c0.7,6.6,6.3,11.5,12.9,11.5h2.4C400.9,266.6,405.8,263.2,407.7,258z"/>
</g>
<g id="boy_hair_3_brown" class="st0">
	<circle class="st44" cx="164.5" cy="146" r="40"/>
	<ellipse class="st44" cx="214.2" cy="126.7" rx="44.9" ry="49.6"/>
	<ellipse class="st44" cx="184.5" cy="126.7" rx="37.3" ry="39.9"/>
	<ellipse class="st44" cx="264" cy="119.7" rx="52.5" ry="42.5"/>
	<ellipse class="st44" cx="304.5" cy="126.7" rx="53.3" ry="38.6"/>
	<circle class="st44" cx="378.1" cy="180.4" r="33.6"/>
	<ellipse class="st44" cx="350.1" cy="153.6" rx="33.6" ry="26.9"/>
	<circle class="st44" cx="357.8" cy="146.1" r="34.4"/>
	<circle class="st44" cx="137.3" cy="183.3" r="37.3"/>
	<path class="st44" d="M101,258c-8.6-22.9-10.9-44.9-4.5-65.5c1.7-5.5,6.7-9.3,12.5-9.3h30.9c11.1,0,17.1,13,9.9,21.4
		c-12.2,14.4-19.1,31.2-21.1,50.3c-0.7,6.6-6.3,11.5-12.9,11.5h-2.4C107.8,266.6,103,263.2,101,258z"/>
	<path class="st44" d="M407.7,258c8.6-22.9,10.9-44.9,4.5-65.5c-1.7-5.5-6.7-9.3-12.5-9.3h-30.9c-11.1,0-17.1,13-9.9,21.4
		c12.2,14.4,19.1,31.2,21.1,50.3c0.7,6.6,6.3,11.5,12.9,11.5h2.4C400.9,266.6,405.8,263.2,407.7,258z"/>
</g>
<g id="boy_hair_3_blond" class="st0">
	<circle class="st45" cx="164.5" cy="146" r="40"/>
	<ellipse class="st45" cx="214.2" cy="126.7" rx="44.9" ry="49.6"/>
	<ellipse class="st45" cx="184.5" cy="126.7" rx="37.3" ry="39.9"/>
	<ellipse class="st45" cx="264" cy="119.7" rx="52.5" ry="42.5"/>
	<ellipse class="st45" cx="304.5" cy="126.7" rx="53.3" ry="38.6"/>
	<circle class="st45" cx="378.1" cy="180.4" r="33.6"/>
	<ellipse class="st45" cx="350.1" cy="153.6" rx="33.6" ry="26.9"/>
	<circle class="st45" cx="357.8" cy="146.1" r="34.4"/>
	<circle class="st45" cx="137.3" cy="183.3" r="37.3"/>
	<path class="st45" d="M101,258c-8.6-22.9-10.9-44.9-4.5-65.5c1.7-5.5,6.7-9.3,12.5-9.3h30.9c11.1,0,17.1,13,9.9,21.4
		c-12.2,14.4-19.1,31.2-21.1,50.3c-0.7,6.6-6.3,11.5-12.9,11.5h-2.4C107.8,266.6,103,263.2,101,258z"/>
	<path class="st45" d="M407.7,258c8.6-22.9,10.9-44.9,4.5-65.5c-1.7-5.5-6.7-9.3-12.5-9.3h-30.9c-11.1,0-17.1,13-9.9,21.4
		c12.2,14.4,19.1,31.2,21.1,50.3c0.7,6.6,6.3,11.5,12.9,11.5h2.4C400.9,266.6,405.8,263.2,407.7,258z"/>
</g>
<path id="moustache_1_black" class="st0" d="M258.3,290.5c43.1-16.5,67.2,0,83.9,29.6c1.6,2.9,5.5,3.5,8,1.3l0,0
	c3.4-3,8.8-0.5,8.7,4c-0.2,9.4-5.2,13.7-13.2,14.7c-0.3,0-0.5,0-0.8,0c-34.1,3.9-62.4-11-84.7-26.4c-1.9-1.3-4.3-1.7-6.2-0.4
	c-19.9,14.4-46.4,29-88.8,26.8c-9.9,0.7-15.7-3.6-15.1-15.9c0.2-4.2,5.2-6.5,8.5-3.8l1.4,1.1c2.6,2.1,6.4,1.2,8-1.8
	c16.7-33.1,47.6-39.4,87.1-29.2C256.2,290.9,257.3,290.9,258.3,290.5z"/>
<path id="moustache_1_brown" class="st41" d="M258.3,290.5c43.1-16.5,67.2,0,83.9,29.6c1.6,2.9,5.5,3.5,8,1.3l0,0
	c3.4-3,8.8-0.5,8.7,4c-0.2,9.4-5.2,13.7-13.2,14.7c-0.3,0-0.5,0-0.8,0c-34.1,3.9-62.4-11-84.7-26.4c-1.9-1.3-4.3-1.7-6.2-0.4
	c-19.9,14.4-46.4,29-88.8,26.8c-9.9,0.7-15.7-3.6-15.1-15.9c0.2-4.2,5.2-6.5,8.5-3.8l1.4,1.1c2.6,2.1,6.4,1.2,8-1.8
	c16.7-33.1,47.6-39.4,87.1-29.2C256.2,290.9,257.3,290.9,258.3,290.5z"/>
<path id="moustache_1_blond" class="st42" d="M258.3,290.5c43.1-16.5,67.2,0,83.9,29.6c1.6,2.9,5.5,3.5,8,1.3l0,0
	c3.4-3,8.8-0.5,8.7,4c-0.2,9.4-5.2,13.7-13.2,14.7c-0.3,0-0.5,0-0.8,0c-34.1,3.9-62.4-11-84.7-26.4c-1.9-1.3-4.3-1.7-6.2-0.4
	c-19.9,14.4-46.4,29-88.8,26.8c-9.9,0.7-15.7-3.6-15.1-15.9c0.2-4.2,5.2-6.5,8.5-3.8l1.4,1.1c2.6,2.1,6.4,1.2,8-1.8
	c16.7-33.1,47.6-39.4,87.1-29.2C256.2,290.9,257.3,290.9,258.3,290.5z"/>
<g id="princess_crown" class="st0">
	<path class="st49" d="M342.8,147.4c1.2-4.8-0.9-10.9-5.3-14.8c-8.7,0-12.8,1-17.6,6c-0.3-6.1-11.5-12.1-17.3-17.4
		c-11.3,3.2-20.8,5.2-26.3,12.6c-2.5-10.6,2.2-16.8-21.8-29.7c-24,12.9-19.3,19.1-21.8,29.7c-5.5-7.3-15-9.4-26.3-12.6
		c-5.8,5.3-16.9,11.3-17.3,17.4c-4.9-4.9-8.8-5.9-17.5-6c-4.4,3.8-6.3,10-5,14.8c-10.3,0.3-17.1,7.3-18.9,11.2v4.9
		c76.8-24.7,147.6-23.4,213.6,0l0-4.9C359.5,154.7,353.1,147.7,342.8,147.4z"/>
	<path class="st37" d="M254.5,145.4c37-0.3,72.5,5.9,106.8,18l0-4.9c-1.7-3.8-8.2-10.8-18.5-11.2c1.2-4.8-0.9-10.9-5.3-14.8
		c-8.7,0-12.8,1-17.6,6c-0.3-6.1-11.5-12.1-17.3-17.4c-11.3,3.2-20.8,5.2-26.3,12.6c-2.5-10.6,2.2-16.8-21.8-29.7"/>
	<path class="st50" d="M254.5,119.2c2-7.1,8.9-6.4,10.3,0c1.1,4.7-3.8,9.6-10.3,13.8L254.5,119.2z"/>
	<path class="st51" d="M254.5,119.2c-2-7.1-8.9-6.4-10.3,0c-1.1,4.7,3.8,9.6,10.3,13.8L254.5,119.2z"/>
	<circle class="st51" cx="208.4" cy="130.1" r="3.7"/>
	<circle class="st50" cx="300.6" cy="130.1" r="3.7"/>
	<circle class="st51" cx="174.6" cy="139.1" r="1.9"/>
	<circle class="st51" cx="334.4" cy="139.1" r="1.9"/>
</g>
<g id="prince_crown" class="st0">
	<path class="st52" d="M255.8,28.3c3.3,3.6,9.7,8.3,9.7,12.7c0,5.3-1,28.5,0,40.1c0.4,5.2,6.3,12,15.9,8.7
		c12.2-4.2,31.1-19.3,31.9-22.6c1.7,12.9,10.5,22.2,22.1,27.5c13.2,1.9,32.8-24.4,34.1-20.6c1.4,3.7-30.3,45.4-32.5,56.3l-81.3,0
		V28.3z"/>
	<circle class="st52" cx="265.5" cy="64.4" r="8.4"/>
	<circle class="st52" cx="313.4" cy="67.3" r="8.1"/>
	<circle class="st52" cx="357" cy="79.4" r="6.6"/>
	<path class="st53" d="M255.8,28.3c-3.3,3.6-9.7,8.3-9.7,12.7c0,5.3,1,28.5,0,40.1c-0.4,5.2-6.3,12-15.9,8.7
		c-12.2-4.2-31.1-19.3-31.9-22.6c-1.7,12.9-10.5,22.2-22.1,27.5c-13.2,1.9-32.8-24.4-34.1-20.6c-1.4,3.7,30.3,45.4,32.5,56.3l81.3,0
		V28.3z"/>
	<circle class="st53" cx="246.1" cy="64.4" r="8.4"/>
	<circle class="st53" cx="198.2" cy="67.3" r="8.1"/>
	<circle class="st53" cx="154.6" cy="79.4" r="6.6"/>
</g>
</svg>
